<?xml version="1.0" standalone="no"?>
<!DOCTYPE svg PUBLIC "-//W3C//DTD SVG 20010904//EN"
 "http://www.w3.org/TR/2001/REC-SVG-20010904/DTD/svg10.dtd">
<svg version="1.0" xmlns="http://www.w3.org/2000/svg"
 width="44.000000pt" height="44.000000pt" viewBox="0 0 44.000000 44.000000"
 preserveAspectRatio="xMidYMid meet">

<g transform="translate(0.000000,44.000000) scale(0.100000,-0.100000)"
fill="#000000" stroke="none">
<path d="M104 407 c-4 -19 -11 -23 -30 -19 -13 2 -35 -3 -49 -12 -27 -18 -25
-36 8 -73 17 -19 18 -26 8 -54 -23 -66 -7 -127 44 -167 21 -17 23 -21 10 -32
-8 -7 -15 -22 -15 -33 0 -16 5 -11 19 16 l19 38 -34 32 c-44 40 -54 94 -30
152 11 26 13 41 6 43 -20 7 -40 33 -40 53 0 23 40 35 68 20 28 -15 32 -14 26
4 -4 8 -3 22 0 31 5 14 10 12 27 -10 17 -21 29 -26 65 -26 l45 0 -6 -33 c-4
-21 0 -49 11 -76 15 -38 20 -42 44 -39 14 2 32 -2 39 -9 10 -11 16 -12 28 -2
19 16 33 -3 33 -46 0 -39 -9 -49 -45 -53 -16 -2 -36 -12 -44 -23 -9 -12 -26
-19 -50 -20 -20 -1 -28 -3 -18 -6 10 -3 17 -14 17 -28 0 -13 4 -26 9 -29 4 -3
6 5 4 18 -3 13 0 26 5 30 6 3 8 -2 5 -12 -5 -21 21 -47 37 -37 7 4 9 20 6 39
l-6 31 47 0 48 0 6 -40 6 -40 1 47 c1 27 -3 52 -10 59 -8 7 -12 29 -10 53 2
26 -4 59 -17 89 -16 37 -18 53 -10 68 5 11 9 32 7 47 -2 21 -9 28 -29 30 -18
2 -29 11 -33 25 -6 22 -7 22 -27 -5 -18 -25 -27 -28 -80 -28 -51 0 -61 3 -75
25 -20 31 -32 32 -40 2z m212 -31 c-4 -17 -11 -23 -21 -20 -12 5 -12 9 2 30
19 29 28 25 19 -10z m54 -41 c0 -25 -14 -34 -24 -16 -8 12 3 41 15 41 5 0 9
-11 9 -25z m-10 -95 c0 -5 -4 -10 -10 -10 -5 0 -10 5 -10 10 0 6 5 10 10 10 6
0 10 -4 10 -10z"/>
<path d="M132 228 c4 -33 63 -39 73 -8 4 12 4 24 1 27 -3 4 -6 -2 -6 -11 0
-10 -6 -16 -12 -13 -7 2 -12 10 -10 16 1 6 -10 11 -24 11 -21 0 -25 -4 -22
-22z m28 -8 c0 -5 -4 -10 -10 -10 -5 0 -10 5 -10 10 0 6 5 10 10 10 6 0 10 -4
10 -10z"/>
<path d="M318 178 c5 -5 16 -8 23 -6 8 3 3 7 -10 11 -17 4 -21 3 -13 -5z"/>
<path d="M215 170 c3 -5 12 -7 20 -3 21 7 19 13 -6 13 -11 0 -18 -4 -14 -10z"/>
</g>
</svg>
